<?xml version="1.0" encoding="UTF-8" standalone="no"?>
<!-- Created with Inkscape (http://www.inkscape.org/) -->

<svg
   xmlns:dc="http://purl.org/dc/elements/1.1/"
   xmlns:cc="http://creativecommons.org/ns#"
   xmlns:rdf="http://www.w3.org/1999/02/22-rdf-syntax-ns#"
   xmlns:svg="http://www.w3.org/2000/svg"
   xmlns="http://www.w3.org/2000/svg"
   xmlns:sodipodi="http://sodipodi.sourceforge.net/DTD/sodipodi-0.dtd"
   xmlns:inkscape="http://www.inkscape.org/namespaces/inkscape"
   width="744.09448819"
   height="1052.3622047"
   id="svg3050"
   version="1.1"
   inkscape:version="0.48.4 r9939"
   sodipodi:docname="New document 1">
  <defs
     id="defs3052">
    <inkscape:perspective
       sodipodi:type="inkscape:persp3d"
       inkscape:vp_x="-10.985678 : 350.82702 : 1"
       inkscape:vp_y="0 : 679.17683 : 0"
       inkscape:vp_z="733.10881 : 350.82702 : 1"
       inkscape:persp3d-origin="361.06157 : 231.70368 : 1"
       id="perspective4046" />
  </defs>
  <sodipodi:namedview
     id="base"
     pagecolor="#ffffff"
     bordercolor="#666666"
     borderopacity="1.0"
     inkscape:pageopacity="0.0"
     inkscape:pageshadow="2"
     inkscape:zoom="1.3195079"
     inkscape:cx="290.39684"
     inkscape:cy="112.51307"
     inkscape:document-units="px"
     inkscape:current-layer="layer1"
     showgrid="true"
     inkscape:window-width="1412"
     inkscape:window-height="773"
     inkscape:window-x="96"
     inkscape:window-y="41"
     inkscape:window-maximized="0">
    <inkscape:grid
       type="xygrid"
       id="grid3058" />
  </sodipodi:namedview>
  <metadata
     id="metadata3055">
    <rdf:RDF>
      <cc:Work
         rdf:about="">
        <dc:format>image/svg+xml</dc:format>
        <dc:type
           rdf:resource="http://purl.org/dc/dcmitype/StillImage" />
        <dc:title></dc:title>
      </cc:Work>
    </rdf:RDF>
  </metadata>
  <g
     inkscape:label="Layer 1"
     inkscape:groupmode="layer"
     id="layer1">
    <rect
       style="fill:#000000;fill-opacity:1;fill-rule:nonzero;stroke:none;stroke-width:3.23000001999999986;stroke-miterlimit:4;stroke-opacity:1;stroke-dasharray:none;stroke-dashoffset:0"
       id="rect3060"
       width="100"
       height="100"
       x="150"
       y="952.36218"
       ry="0.49560246"
       inkscape:export-filename="/home/brad/Useless_Stuff/Coding/star-nomads/img/icon/snowflake.png"
       inkscape:export-xdpi="90"
       inkscape:export-ydpi="90" />
    <rect
       style="fill:#ff00ff;fill-opacity:1;fill-rule:nonzero;stroke:#000000;stroke-width:3.23000002;stroke-miterlimit:4;stroke-opacity:1;stroke-dasharray:none;stroke-dashoffset:0"
       id="rect3060-4"
       width="100"
       height="100"
       x="1"
       y="951.36218"
       ry="0.49560246" />
    <path
       sodipodi:type="arc"
       style="fill:#ffffff;fill-opacity:1;fill-rule:nonzero;stroke:none;stroke-width:3.23000001999999986;stroke-miterlimit:4;stroke-opacity:1;stroke-dasharray:none;stroke-dashoffset:0"
       id="path3062"
       sodipodi:cx="50"
       sodipodi:cy="1002.3622"
       sodipodi:rx="20"
       sodipodi:ry="20"
       d="m 49.998203,1022.3622 a 20,20 0 1 1 0.0076,0"
       sodipodi:start="1.5708862"
       sodipodi:end="7.8536896"
       sodipodi:open="true" />
    <rect
       style="fill:#ffffff;fill-opacity:1;fill-rule:nonzero;stroke:none;stroke-width:3.22999999999999998;stroke-miterlimit:4;stroke-opacity:1;stroke-dasharray:none;stroke-dashoffset:0"
       id="rect3832"
       width="10"
       height="25"
       x="45"
       y="952.36218"
       ry="0.49560246" />
    <rect
       style="fill:#ffffff;fill-opacity:1;fill-rule:nonzero;stroke:none;stroke-width:3.22999999999999998;stroke-miterlimit:4;stroke-opacity:1;stroke-dasharray:none;stroke-dashoffset:0"
       id="rect3832-4"
       width="10"
       height="25"
       x="45.100506"
       y="1027.3156"
       ry="0.49560246" />
    <rect
       style="fill:#ffffff;fill-opacity:1;fill-rule:nonzero;stroke:none;stroke-width:3.22999999999999998;stroke-miterlimit:4;stroke-opacity:1;stroke-dasharray:none;stroke-dashoffset:0"
       id="rect3832-0"
       width="10"
       height="25"
       x="-1007.417"
       y="0.073509216"
       ry="0.49560246"
       transform="matrix(0,-1,1,0,0,0)" />
    <rect
       style="fill:#ffffff;fill-opacity:1;fill-rule:nonzero;stroke:none;stroke-width:3.22999999999999998;stroke-miterlimit:4;stroke-opacity:1;stroke-dasharray:none;stroke-dashoffset:0"
       id="rect3832-4-0"
       width="10"
       height="25"
       x="-1007.3165"
       y="75.027"
       ry="0.49560246"
       transform="matrix(0,-1,1,0,0,0)" />
    <rect
       style="fill:#ffffff;fill-opacity:1;fill-rule:nonzero;stroke:none;stroke-width:3.23000000999999992;stroke-miterlimit:4;stroke-opacity:1;stroke-dasharray:none;stroke-dashoffset:0"
       id="rect3832-07"
       width="10"
       height="25"
       x="739.10126"
       y="623.39301"
       ry="0.49560246"
       transform="matrix(0.70710678,0.70710678,-0.70710678,0.70710678,0,0)" />
    <rect
       style="fill:#ffffff;fill-opacity:1;fill-rule:nonzero;stroke:none;stroke-width:3.23000000999999992;stroke-miterlimit:4;stroke-opacity:1;stroke-dasharray:none;stroke-dashoffset:0"
       id="rect3832-4-5"
       width="10"
       height="25"
       x="739.20178"
       y="698.3465"
       ry="0.49560246"
       transform="matrix(0.70710678,0.70710678,-0.70710678,0.70710678,0,0)" />
    <rect
       style="fill:#ffffff;fill-opacity:1;fill-rule:nonzero;stroke:none;stroke-width:3.23000000999999992;stroke-miterlimit:4;stroke-opacity:1;stroke-dasharray:none;stroke-dashoffset:0"
       id="rect3832-0-0"
       width="10"
       height="25"
       x="-678.44781"
       y="694.1748"
       ry="0.49560246"
       transform="matrix(0.70710678,-0.70710678,0.70710678,0.70710678,0,0)" />
    <rect
       style="fill:#ffffff;fill-opacity:1;fill-rule:nonzero;stroke:none;stroke-width:3.23000000999999992;stroke-miterlimit:4;stroke-opacity:1;stroke-dasharray:none;stroke-dashoffset:0"
       id="rect3832-4-0-9"
       width="10"
       height="25"
       x="-678.34735"
       y="769.1283"
       ry="0.49560246"
       transform="matrix(0.70710678,-0.70710678,0.70710678,0.70710678,0,0)" />
    <rect
       style="fill:#fff10b;fill-opacity:1;fill-rule:nonzero;stroke:#000000;stroke-width:3.23000001999999986;stroke-miterlimit:4;stroke-opacity:1;stroke-dasharray:none;stroke-dashoffset:0"
       id="rect3060-0"
       width="100"
       height="100"
       x="299.70432"
       y="952.67651"
       ry="0.49560246"
       inkscape:export-filename="/home/brad/Useless_Stuff/Coding/star-nomads/img/icon/icecube.png"
       inkscape:export-xdpi="90"
       inkscape:export-ydpi="90" />
    <path
       inkscape:connector-curvature="0"
       id="path4078"
       style="fill:#afafde;fill-opacity:1;fill-rule:evenodd;stroke:none"
       d="m 309.01433,1006.1332 43.77197,41.6652 40.25886,-36.6535 -44.03083,-33.74096 z"
       inkscape:export-filename="/home/brad/Useless_Stuff/Coding/star-nomads/img/icon/icecube.png"
       inkscape:export-xdpi="90"
       inkscape:export-ydpi="90" />
    <path
       inkscape:connector-curvature="0"
       id="path4080"
       style="fill:#353564;fill-opacity:1;fill-rule:evenodd;stroke:none"
       d="m 309.01433,982.39747 0,23.73573 40,-28.72926 0,-21.49701 z"
       inkscape:export-filename="/home/brad/Useless_Stuff/Coding/star-nomads/img/icon/icecube.png"
       inkscape:export-xdpi="90"
       inkscape:export-ydpi="90" />
    <path
       inkscape:connector-curvature="0"
       id="path4082"
       style="fill:#e9e9ff;fill-opacity:1;fill-rule:evenodd;stroke:none"
       d="m 349.01433,955.90693 44.03083,31.11166 0,24.12631 -44.03083,-33.74096 z"
       inkscape:export-filename="/home/brad/Useless_Stuff/Coding/star-nomads/img/icon/icecube.png"
       inkscape:export-xdpi="90"
       inkscape:export-ydpi="90" />
    <path
       inkscape:connector-curvature="0"
       id="path4084"
       style="fill:#ffffff;fill-opacity:1;fill-rule:evenodd;stroke:none"
       d="m 309.01433,982.39747 43.77197,38.41843 40.25886,-33.79731 -44.03083,-31.11166 z"
       inkscape:export-filename="/home/brad/Useless_Stuff/Coding/star-nomads/img/icon/icecube.png"
       inkscape:export-xdpi="90"
       inkscape:export-ydpi="90" />
    <path
       inkscape:connector-curvature="0"
       id="path4086"
       style="fill:#d0d0d0;fill-opacity:1;fill-rule:evenodd;stroke:none"
       d="m 352.7863,1020.8159 0,26.9825 40.25886,-36.6535 0,-24.12631 z"
       inkscape:export-filename="/home/brad/Useless_Stuff/Coding/star-nomads/img/icon/icecube.png"
       inkscape:export-xdpi="90"
       inkscape:export-ydpi="90" />
    <path
       inkscape:connector-curvature="0"
       id="path4088"
       style="fill:#828282;fill-opacity:1;fill-rule:evenodd;stroke:none"
       d="m 309.01433,982.39747 43.77197,38.41843 0,26.9825 -43.77197,-41.6652 z"
       inkscape:export-filename="/home/brad/Useless_Stuff/Coding/star-nomads/img/icon/icecube.png"
       inkscape:export-xdpi="90"
       inkscape:export-ydpi="90" />
    <rect
       style="fill:#ff00ff;fill-opacity:1;fill-rule:nonzero;stroke:#000000;stroke-width:3.23000002;stroke-miterlimit:4;stroke-opacity:1;stroke-dasharray:none;stroke-dashoffset:0"
       id="rect3060-43"
       width="100"
       height="100"
       x="450"
       y="952.36218"
       ry="0.49560246"
       inkscape:export-filename="/home/brad/Useless_Stuff/Coding/star-nomads/img/icon/fire.png"
       inkscape:export-xdpi="90"
       inkscape:export-ydpi="90" />
    <path
       inkscape:connector-curvature="0"
       d="m 499.54262,957.05538 c -5.13191,9.8017 1.12108,15.3346 -5.77221,29.77325 -3.65733,-2.92212 -1.53706,-13.84252 -8.80063,-14.02554 1.11784,3.3535 0.28117,4.6561 0.0949,5.86709 -0.72253,4.69644 -2.39925,8.89351 0.86109,15.13473 -5.00838,-2.43333 -5.0915,-6.89812 -9.32603,-9.6982 0.83837,4.75078 -1.18054,14.38426 4.44409,23.61429 -5.01204,-0.493 -6.67425,-2.4197 -12.09902,-7.6185 5.66152,29.3286 9.87348,30.1525 30.63433,31.8165 -1.56422,-0.1833 -12.02472,-1.8539 -15.81339,-13.9087 -0.21504,-2.985 -0.33309,2.6232 9.72739,2.8095 -6.37013,-10.0886 -4.63472,-8.1789 -3.8895,-14.0475 2.63701,4.0164 0.32678,4.3676 7.77899,7.3485 -2.36276,-7.5068 3.64659,-12.6434 2.34245,-21.21346 1.64666,3.76378 7.50386,3.17102 7.2244,21.24266 4.84973,-5.4107 5.42827,-1.6657 7.75709,-7.7207 0.13489,3.371 1.6144,7.5682 -4.9768,14.478 1.67675,0.4658 4.48426,0.8265 9.04874,-2.2476 -4.44434,5.0369 -0.42761,5.1557 -11.66849,13.398 14.15919,0.1863 23.45882,-8.7269 23.12535,-28.3138 -0.37261,1.6768 -0.78995,5.0249 -8.42846,6.0495 4.78471,-4.7544 7.27821,-14.22048 3.45895,-22.0453 -1.34471,1.25065 -3.4347,7.06549 -8.46494,8.74225 2.55147,-4.18603 1.97759,-9.60334 1.97759,-9.60334 0,0 0.65093,-7.31663 -3.67058,-12.96741 -1.21098,8.84949 -1.10982,13.2996 -6.69898,14.69689 0.89946,-5.22291 1.0651,-7.65512 -1.72948,-13.61688 -2.91879,-6.22677 -6.29845,-12.35507 -7.13682,-17.94423 z m -23.38075,79.92072 0,2.5614 0,2.5687 24.9205,0 24.92049,0 -0.008,-2.5614 -0.008,-2.5541 -24.90593,-0.01 -24.9205,-0.01 z"
       style="fill:#ffffff;stroke:none;fill-opacity:1"
       id="path4128"
       inkscape:export-filename="/home/brad/Useless_Stuff/Coding/star-nomads/img/icon/fire.png"
       inkscape:export-xdpi="90"
       inkscape:export-ydpi="90" />
    <path
       style="fill:#000000;stroke:#ffffff;stroke-width:9.32568835999999912;stroke-linecap:round;stroke-linejoin:round;fill-opacity:1;stroke-opacity:1"
       inkscape:connector-curvature="0"
       d="m 199.49782,962.06382 v 80.60058 m -34.63827,-60.28395 69.27654,39.96735 m 0,-39.96735 -69.27654,39.96735 m 10.991,-47.62764 v 13.3224 m 0,28.64324 v 13.3224 m 47.29456,-55.28804 v 13.3224 m 0,28.64324 v 13.3224 m -58.95167,-35.30449 11.65711,-6.66115 m 23.64727,-13.98857 11.65711,-6.66115 m -23.31422,0 11.65711,6.66115 m 23.64729,13.98857 11.65711,6.66115 m -70.60878,15.32079 11.65711,6.6613 m 23.64727,13.9885 11.65711,6.6612 m -23.31422,0 11.65711,-6.6612 m 23.64729,-13.9885 11.65711,-6.6613"
       id="path4150"
       inkscape:export-filename="/home/brad/Useless_Stuff/Coding/star-nomads/img/icon/snowflake.png"
       inkscape:export-xdpi="90"
       inkscape:export-ydpi="90" />
  </g>
</svg>
