<svg xmlns="http://www.w3.org/2000/svg" xmlns:xlink="http://www.w3.org/1999/xlink" version="1.1" x="0px" y="0px" viewBox="0 0 100 125" enable-background="new 0 0 100 100" xml:space="preserve"><path d="M92.5,42.5c1.4,0,2.5-1.1,2.5-2.5s-1.1-2.5-2.5-2.5h-30v-4l4.3-4.3c1-1,1-2.6,0-3.5c-1-1-2.6-1-3.5,0L60,29l-1.8,1.8  c-0.5,0.5-0.7,1.1-0.7,1.8v35c0,0.7,0.3,1.3,0.7,1.8l5,5c0.5,0.5,1.1,0.7,1.8,0.7s1.3-0.2,1.8-0.7c1-1,1-2.6,0-3.5l-4.3-4.3v-4h30  c1.4,0,2.5-1.1,2.5-2.5s-1.1-2.5-2.5-2.5h-30v-15H92.5z"/><path d="M36.8,25.7c-1-1-2.6-1-3.5,0c-1,1-1,2.6,0,3.5l4.3,4.3v4h-30C6.1,37.5,5,38.6,5,40s1.1,2.5,2.5,2.5h30v15h-30  C6.1,57.5,5,58.6,5,60s1.1,2.5,2.5,2.5h30v4l-4.3,4.3c-1,1-1,2.6,0,3.5c0.5,0.5,1.1,0.7,1.8,0.7s1.3-0.2,1.8-0.7l5-5  c0.5-0.5,0.7-1.1,0.7-1.8v-35c0-0.7-0.3-1.3-0.7-1.8L36.8,25.7z"/><text x="0" y="115" fill="#000000" font-size="5px" font-weight="bold" font-family="'Helvetica Neue', Helvetica, Arial-Unicode, Arial, Sans-serif">Created by Arthur Shlain</text><text x="0" y="120" fill="#000000" font-size="5px" font-weight="bold" font-family="'Helvetica Neue', Helvetica, Arial-Unicode, Arial, Sans-serif">from the Noun Project</text></svg>