<?xml version="1.0" encoding="UTF-8" standalone="no"?>
<svg
   xmlns:dc="http://purl.org/dc/elements/1.1/"
   xmlns:cc="http://creativecommons.org/ns#"
   xmlns:rdf="http://www.w3.org/1999/02/22-rdf-syntax-ns#"
   xmlns:svg="http://www.w3.org/2000/svg"
   xmlns="http://www.w3.org/2000/svg"
   xmlns:sodipodi="http://sodipodi.sourceforge.net/DTD/sodipodi-0.dtd"
   xmlns:inkscape="http://www.inkscape.org/namespaces/inkscape"
   version="1.1"
   x="0px"
   y="0px"
   viewBox="0 0 100 125"
   enable-background="new 0 0 100 100"
   xml:space="preserve"
   id="svg2"
   inkscape:version="0.48.4 r9939"
   width="100%"
   height="100%"
   sodipodi:docname="noun_103683_cc.svg"><metadata
     id="metadata20"><rdf:RDF><cc:Work
         rdf:about=""><dc:format>image/svg+xml</dc:format><dc:type
           rdf:resource="http://purl.org/dc/dcmitype/StillImage" /><dc:title></dc:title></cc:Work></rdf:RDF></metadata><defs
     id="defs18" /><sodipodi:namedview
     pagecolor="#ffffff"
     bordercolor="#666666"
     borderopacity="1"
     objecttolerance="10"
     gridtolerance="10"
     guidetolerance="10"
     inkscape:pageopacity="0"
     inkscape:pageshadow="2"
     inkscape:window-width="640"
     inkscape:window-height="480"
     id="namedview16"
     showgrid="false"
     inkscape:zoom="1.888"
     inkscape:cx="50"
     inkscape:cy="62.5"
     inkscape:window-x="0"
     inkscape:window-y="0"
     inkscape:window-maximized="0"
     inkscape:current-layer="svg2" /><path
     d="M92.5,42.5c1.4,0,2.5-1.1,2.5-2.5s-1.1-2.5-2.5-2.5h-20v-4l4.3-4.3c1-1,1-2.6,0-3.5c-1-1-2.6-1-3.5,0l-5,5  c-0.5,0.5-0.7,1.1-0.7,1.8v35c0,0.7,0.3,1.3,0.7,1.8l5,5c0.5,0.5,1.1,0.7,1.8,0.7s1.3-0.2,1.8-0.7c1-1,1-2.6,0-3.5l-4.3-4.3v-4h20  c1.4,0,2.5-1.1,2.5-2.5s-1.1-2.5-2.5-2.5h-20v-15H92.5z"
     id="path4" /><path
     d="M40,5c-1.4,0-2.5,1.1-2.5,2.5V10v82.5c0,1.4,1.1,2.5,2.5,2.5s2.5-1.1,2.5-2.5V10V7.5C42.5,6.1,41.4,5,40,5z"
     id="path6" /><path
     d="M60,5c-1.4,0-2.5,1.1-2.5,2.5V10v82.5c0,1.4,1.1,2.5,2.5,2.5s2.5-1.1,2.5-2.5V10V7.5C62.5,6.1,61.4,5,60,5z"
     id="path8" /><path
     d="M26.8,25.7c-1-1-2.6-1-3.5,0c-1,1-1,2.6,0,3.5l4.3,4.3v4h-20C6.1,37.5,5,38.6,5,40s1.1,2.5,2.5,2.5h20v15h-20  C6.1,57.5,5,58.6,5,60s1.1,2.5,2.5,2.5h20v4l-4.3,4.3c-1,1-1,2.6,0,3.5c0.5,0.5,1.1,0.7,1.8,0.7s1.3-0.2,1.8-0.7l5-5  c0.5-0.5,0.7-1.1,0.7-1.8v-35c0-0.7-0.3-1.3-0.7-1.8L26.8,25.7z"
     id="path10" /><text
     x="0"
     y="115"
     fill="#000000"
     font-size="5px"
     font-weight="bold"
     font-family="'Helvetica Neue', Helvetica, Arial-Unicode, Arial, Sans-serif"
     id="text12">Created by Arthur Shlain</text>
<text
     x="0"
     y="120"
     fill="#000000"
     font-size="5px"
     font-weight="bold"
     font-family="'Helvetica Neue', Helvetica, Arial-Unicode, Arial, Sans-serif"
     id="text14">from the Noun Project</text>
</svg>