<?xml version="1.0" encoding="UTF-8" standalone="no"?>
<svg
   xmlns:dc="http://purl.org/dc/elements/1.1/"
   xmlns:cc="http://creativecommons.org/ns#"
   xmlns:rdf="http://www.w3.org/1999/02/22-rdf-syntax-ns#"
   xmlns:svg="http://www.w3.org/2000/svg"
   xmlns="http://www.w3.org/2000/svg"
   xmlns:sodipodi="http://sodipodi.sourceforge.net/DTD/sodipodi-0.dtd"
   xmlns:inkscape="http://www.inkscape.org/namespaces/inkscape"
   version="1.1"
   x="0px"
   y="0px"
   viewBox="0 0 24 30"
   style="enable-background:new 0 0 24 24;"
   xml:space="preserve"
   id="svg2"
   inkscape:version="0.48.4 r9939"
   width="100%"
   height="100%"
   sodipodi:docname="noun_396544_cc.svg"><metadata
     id="metadata22"><rdf:RDF><cc:Work
         rdf:about=""><dc:format>image/svg+xml</dc:format><dc:type
           rdf:resource="http://purl.org/dc/dcmitype/StillImage" /><dc:title></dc:title></cc:Work></rdf:RDF></metadata><defs
     id="defs20" /><sodipodi:namedview
     pagecolor="#ffffff"
     bordercolor="#666666"
     borderopacity="1"
     objecttolerance="10"
     gridtolerance="10"
     guidetolerance="10"
     inkscape:pageopacity="0"
     inkscape:pageshadow="2"
     inkscape:window-width="1370"
     inkscape:window-height="720"
     id="namedview18"
     showgrid="false"
     inkscape:zoom="15.733333"
     inkscape:cx="0.23194075"
     inkscape:cy="17.029897"
     inkscape:window-x="0"
     inkscape:window-y="0"
     inkscape:window-maximized="0"
     inkscape:current-layer="svg2" /><path
     inkscape:connector-curvature="0"
     id="path6"
     d="m 15.5,13.001 c 0.276,0 0.5,-0.224 0.5,-0.5 0,-0.276 -0.224,-0.5 -0.5,-0.5 h -7 c -0.276,0 -0.5,0.224 -0.5,0.5 v 7 c 0,0.276 0.224,0.5 0.5,0.5 h 3 c 0.276,0 0.5,-0.224 0.5,-0.5 0,-0.276 -0.224,-0.5 -0.5,-0.5 H 9 v -6 c 0,0 6.5,0 6.5,0 z"
     style="fill:#bbbbbb;fill-opacity:1" /><path
     inkscape:connector-curvature="0"
     id="path8"
     d="M 14,23.001 H 4 v -11.5 c 0,-0.276 -0.224,-0.5 -0.5,-0.5 H 1.707 L 11.5,1.207 c 0.264,-0.264 0.734,-0.265 0.999,0 l 3.647,3.647 C 16.29,4.997 16.504,5.042 16.691,4.962 16.878,4.886 17,4.702 17,4.501 v -3.5 h 3 v 7.5 c 0,0.133 0.052,0.26 0.146,0.354 l 2.146,2.146 h -1.793 c -0.276,0 -0.5,0.224 -0.5,0.5 v 0.5 c 0,0.276 0.224,0.5 0.5,0.5 0.276,0 0.5,-0.224 0.5,-0.5 h 2.5 c 0.202,0 0.385,-0.122 0.462,-0.309 0.078,-0.187 0.035,-0.402 -0.108,-0.545 L 20.999,8.293 V 0.499 c 0,-0.276 -0.224,-0.5 -0.5,-0.5 h -4 c -0.276,0 -0.5,0.224 -0.5,0.5 V 3.292 L 13.206,0.499 c -0.643,-0.644 -1.767,-0.645 -2.413,0 L 0.146,11.147 c -0.143,0.143 -0.186,0.358 -0.108,0.545 0.077,0.187 0.26,0.309 0.462,0.309 H 3 v 11.5 c 0,0.276 0.224,0.5 0.5,0.5 H 14 c 0.276,0 0.5,-0.224 0.5,-0.5 0,-0.276 -0.224,-0.5 -0.5,-0.5 z"
     style="fill:#bbbbbb;fill-opacity:1" /><path
     inkscape:connector-curvature="0"
     id="path10"
     d="m 18.501,13.001 c -3.033,0 -5.5,2.467 -5.5,5.5 0,3.033 2.467,5.5 5.5,5.5 3.033,0 5.5,-2.467 5.5,-5.5 0,-3.033 -2.467,-5.5 -5.5,-5.5 z m 0,10 c -2.481,0 -4.5,-2.019 -4.5,-4.5 0,-2.481 2.019,-4.5 4.5,-4.5 2.482,0 4.5,2.019 4.5,4.5 0,2.481 -2.019,4.5 -4.5,4.5 z"
     style="fill:#bbbbbb;fill-opacity:1" /><path
     inkscape:connector-curvature="0"
     id="path12"
     d="m 19.001,18.001 0,-1.5 c 0,-0.276 -0.224,-0.5 -0.5,-0.5 -0.276,0 -0.5,0.224 -0.5,0.5 0.0606,3.818894 0,-0.590716 0,4 0,0.276 0.224,0.5 0.5,0.5 0.277,0 0.5,-0.224 0.5,-0.5 l 0,-1.5 c -0.03035,-1.022148 -0.03864,0.01309 0,-1 z"
     sodipodi:nodetypes="cssccsscc"
     style="fill:#bbbbbb;fill-opacity:1" /></svg>