<?xml version="1.0" encoding="UTF-8" standalone="no"?>
<svg
   xmlns:dc="http://purl.org/dc/elements/1.1/"
   xmlns:cc="http://creativecommons.org/ns#"
   xmlns:rdf="http://www.w3.org/1999/02/22-rdf-syntax-ns#"
   xmlns:svg="http://www.w3.org/2000/svg"
   xmlns="http://www.w3.org/2000/svg"
   xmlns:sodipodi="http://sodipodi.sourceforge.net/DTD/sodipodi-0.dtd"
   xmlns:inkscape="http://www.inkscape.org/namespaces/inkscape"
   version="1.1"
   viewBox="0 0 105 131.25"
   x="0px"
   y="0px"
   id="svg2"
   inkscape:version="0.48.4 r9939"
   width="100%"
   height="100%"
   sodipodi:docname="noun_167595_cc.svg">
  <metadata
     id="metadata14">
    <rdf:RDF>
      <cc:Work
         rdf:about="">
        <dc:format>image/svg+xml</dc:format>
        <dc:type
           rdf:resource="http://purl.org/dc/dcmitype/StillImage" />
        <dc:title></dc:title>
      </cc:Work>
    </rdf:RDF>
  </metadata>
  <defs
     id="defs12" />
  <sodipodi:namedview
     pagecolor="#ffffff"
     bordercolor="#666666"
     borderopacity="1"
     objecttolerance="10"
     gridtolerance="10"
     guidetolerance="10"
     inkscape:pageopacity="0"
     inkscape:pageshadow="2"
     inkscape:window-width="1015"
     inkscape:window-height="681"
     id="namedview10"
     showgrid="false"
     inkscape:zoom="3.5961905"
     inkscape:cx="-35.63142"
     inkscape:cy="78.891809"
     inkscape:window-x="0"
     inkscape:window-y="0"
     inkscape:window-maximized="0"
     inkscape:current-layer="svg2" />
  <path
     style="color:#000000;fill:#ffffff;fill-opacity:1;fill-rule:nonzero;stroke:#ffffff;stroke-width:8;stroke-linecap:butt;stroke-linejoin:round;stroke-miterlimit:4;stroke-opacity:1;stroke-dasharray:none;stroke-dashoffset:0;visibility:visible;display:inline;overflow:visible;enable-background:accumulate"
     d="m 51.468491,51.956436 -1.39036,14.699815 c -1.826384,0.898041 -3.063867,2.882742 -3.066407,4.917969 0.0011,2.03653 1.238856,4.023259 3.066407,4.921875 l 0,5.517578 4.843751,0 0,-5.523438 c 1.825801,-0.897752 3.063143,-2.88144 3.066407,-4.916015 -3.67e-4,-2.037181 -1.238272,-4.024924 -3.066407,-4.923827 L 53.25345,52.790652 z M 73.908204,29.039063 70.003912,32.94336 c -1.927048,-0.657655 -4.206917,-0.12947 -5.648442,1.308595 -1.439437,1.441452 -1.968494,3.722474 -1.310543,5.65039 l -10.298001,10.019929 0.643109,2.867684 13.082631,-9.46769 c 1.926001,0.656092 4.203698,0.128044 5.644532,-1.308595 1.439386,-1.440691 1.969176,-3.720696 1.31249,-5.648438 l 3.902345,-3.902343 z m -42.816409,0 -3.423814,3.423829 3.902329,3.902343 c -0.656682,1.927744 -0.126886,4.20775 1.312506,5.648438 1.440834,1.436639 3.718531,1.964687 5.644532,1.308595 L 51.609979,53.06803 51.1408,49.644202 41.955086,39.902345 c 0.657951,-1.927916 0.128895,-4.208938 -1.310542,-5.65039 C 39.203019,32.81389 36.92315,32.285705 34.996102,32.94336 z M 52.500127,2.4999952 C 24.912905,2.4999967 2.5001332,24.91277 2.5001332,52.499999 2.5001332,80.08723 24.912905,102.5 52.500127,102.5 c 27.587236,0 50.000013,-22.41277 50.000013,-50.000001 0,-27.587229 -22.412777,-50.0000023 -50.000013,-50.0000038 z m 0,4.5602162 c 25.122745,0 45.439786,20.3170516 45.439786,45.4397876 0,25.122736 -20.317041,45.439788 -45.439786,45.439788 -25.12273,0 -45.4400711,-20.317052 -45.4400711,-45.439788 0,-25.122736 20.3173411,-45.4397876 45.4400711,-45.4397876 z"
     id="path4"
     inkscape:export-filename="/home/brad/Useless_Stuff/Coding/star-nomads/img/icon/noun-project/ryan-lerch-three-prong-outlet.png"
     inkscape:export-xdpi="300.03076"
     inkscape:export-ydpi="300.03076"
     inkscape:connector-curvature="0"
     sodipodi:nodetypes="cccccccccccccccccccccccccccccccccssssssssss" />
</svg>
