<svg xmlns="http://www.w3.org/2000/svg" xmlns:xlink="http://www.w3.org/1999/xlink" version="1.1" x="0px" y="0px" viewBox="0 0 100 125" enable-background="new 0 0 100 100" xml:space="preserve"><g><g><polygon points="4.292,3 20.125,3 67.625,50.104 20.125,98 4.292,98 51.792,49.708   "/><path d="M20.333,98H3.098l47.987-48.786L3.07,2h17.261l0.146,0.145l47.855,47.457l-0.352,0.355L20.333,98z M5.485,97h14.432    l47.001-47.393L19.919,3H5.513l46.986,46.202L5.485,97z"/></g><g><polygon points="3.896,17.542 35.115,49.208 3,80.875 3,65.042 19.875,49.208 4.167,33.375   "/><path d="M3,82.077V64.828l16.409-15.629L3.797,33.587L3.365,16.298L36.072,49.21L3,82.077z M4,65.256v14.417l30.658-30.467    l-30.23-30.42l0.359,14.377l16.055,16.054L4,65.256z"/></g></g><text x="0" y="115" fill="#000000" font-size="5px" font-weight="bold" font-family="'Helvetica Neue', Helvetica, Arial-Unicode, Arial, Sans-serif">Created by Brian Oppenlander</text><text x="0" y="120" fill="#000000" font-size="5px" font-weight="bold" font-family="'Helvetica Neue', Helvetica, Arial-Unicode, Arial, Sans-serif">from the Noun Project</text></svg>