<svg xmlns="http://www.w3.org/2000/svg" xmlns:xlink="http://www.w3.org/1999/xlink" xmlns:sketch="http://www.bohemiancoding.com/sketch/ns" viewBox="0 0 60 75" version="1.1" x="0px" y="0px"><title>8 - Space Station (Solid)</title><desc>Created with Sketch.</desc><g stroke="none" stroke-width="1" fill="none" fill-rule="evenodd" sketch:type="MSPage"><g sketch:type="MSLayerGroup" fill="#000000"><path d="M38,0 L38,8 L34,8 L34,4 L26,4 L26,8 L22,8 L22,0 L0,0 L0,18 L22,18 L22,10 L29,10 L29,13 L27,13 L27,20 L15,20 L15,25 L11,25 L11,20 L0,20 L0,40 L11,40 L11,35 L15,35 L15,40 L21,40 L21,31 L26,31 L26,40 L27,40 L27,47 L29,47 L29,50 L22,50 L22,42 L0,42 L0,60 L22,60 L22,52 L26,52 L26,56 L34,56 L34,52 L38,52 L38,60 L60,60 L60,42 L38,42 L38,50 L31,50 L31,47 L33,47 L33,40 L45,40 L45,35 L49,35 L49,40 L60,40 L60,20 L49,20 L49,25 L45,25 L45,20 L33,20 L33,13 L31,13 L31,10 L38,10 L38,18 L60,18 L60,0 L38,0 L38,0 Z M17,2 L20,2 L20,8 L17,8 L17,2 Z M7,2 L10,2 L10,8 L7,8 L7,2 Z M12,10 L15,10 L15,16 L12,16 L12,10 Z M2,10 L5,10 L5,16 L2,16 L2,10 Z M11,27 L15,27 L15,33 L11,33 L11,27 Z M17,44 L20,44 L20,50 L17,50 L17,44 Z M7,44 L10,44 L10,50 L7,50 L7,44 Z M12,52 L15,52 L15,58 L12,58 L12,52 Z M2,52 L5,52 L5,58 L2,58 L2,52 Z M40,52 L43,52 L43,58 L40,58 L40,52 Z M50,52 L53,52 L53,58 L50,58 L50,52 Z M45,44 L48,44 L48,50 L45,50 L45,44 Z M55,44 L58,44 L58,50 L55,50 L55,44 Z M28,52 L32,52 L32,54 L28,54 L28,52 Z M33,34 L37,34 L37,38 L33,38 L33,34 Z M33,28 L37,28 L37,32 L33,32 L33,28 Z M53,23 C53.552,23 54,23.448 54,24 C54,24.552 53.552,25 53,25 C52.448,25 52,24.552 52,24 C52,23.448 52.448,23 53,23 L53,23 Z M53,26 C53.552,26 54,26.448 54,27 C54,27.552 53.552,28 53,28 C52.448,28 52,27.552 52,27 C52,26.448 52.448,26 53,26 L53,26 Z M53,29 C53.552,29 54,29.448 54,30 C54,30.552 53.552,31 53,31 C52.448,31 52,30.552 52,30 C52,29.448 52.448,29 53,29 L53,29 Z M53,32 C53.552,32 54,32.448 54,33 C54,33.552 53.552,34 53,34 C52.448,34 52,33.552 52,33 C52,32.448 52.448,32 53,32 L53,32 Z M53,35 C53.552,35 54,35.448 54,36 C54,36.552 53.552,37 53,37 C52.448,37 52,36.552 52,36 C52,35.448 52.448,35 53,35 L53,35 Z M45,27 L49,27 L49,33 L45,33 L45,27 Z M33,22 L37,22 L37,26 L33,26 L33,22 Z M31,40 L31,45 L29,45 L29,15 L31,15 L31,40 L31,40 Z M28,6 L32,6 L32,8 L28,8 L28,6 Z M45,10 L48,10 L48,16 L45,16 L45,10 Z M50,2 L53,2 L53,8 L50,8 L50,2 Z M40,2 L43,2 L43,8 L40,8 L40,2 Z M55,10 L58,10 L58,16 L55,16 L55,10 Z" sketch:type="MSShapeGroup"/><path d="M35,58 C34.448,58 34,58.448 34,59 C34,59.552 34.448,60 35,60 C35.552,60 36,59.552 36,59 C36,58.448 35.552,58 35,58" sketch:type="MSShapeGroup"/><path d="M25,13 C25,12.448 24.552,12 24,12 C23.448,12 23,12.448 23,13 C23,13.552 23.448,14 24,14 C24.552,14 25,13.552 25,13" sketch:type="MSShapeGroup"/><path d="M23,33 L24,33 L24,40 L23,40 L23,33 Z" sketch:type="MSShapeGroup"/></g></g><text x="0" y="75" fill="#000000" font-size="5px" font-weight="bold" font-family="'Helvetica Neue', Helvetica, Arial-Unicode, Arial, Sans-serif">Created by Oliviu Stoian</text><text x="0" y="80" fill="#000000" font-size="5px" font-weight="bold" font-family="'Helvetica Neue', Helvetica, Arial-Unicode, Arial, Sans-serif">from the Noun Project</text></svg>