<svg xmlns:dc="http://purl.org/dc/elements/1.1/" xmlns:cc="http://creativecommons.org/ns#" xmlns:rdf="http://www.w3.org/1999/02/22-rdf-syntax-ns#" xmlns:svg="http://www.w3.org/2000/svg" xmlns="http://www.w3.org/2000/svg" xmlns:sodipodi="http://sodipodi.sourceforge.net/DTD/sodipodi-0.dtd" xmlns:inkscape="http://www.inkscape.org/namespaces/inkscape" version="1.1" x="0px" y="0px" viewBox="0 0 100 125"><g transform="translate(0,-952.36218)"><path style="text-indent:0;text-transform:none;direction:ltr;block-progression:tb;baseline-shift:baseline;color:#000000;enable-background:accumulate;" d="M 49.9375 4.96875 A 3.0003 3.0003 0 0 0 48.5 5.34375 L 9.09375 21.09375 A 3.0003 3.0003 0 0 0 7 24 L 7 74 A 3.0003 3.0003 0 0 0 9.4375 77 L 48.25 94.5 A 3.0003 3.0003 0 0 0 51.71875 94.5 L 90.625 77 A 3.0003 3.0003 0 0 0 93 74 L 93 24 A 3.0003 3.0003 0 0 0 91.125 21.1875 A 3.0003 3.0003 0 0 0 90.75 21.03125 L 76.25 15.25 A 3.0146533 3.0146533 0 0 0 76.125 15.1875 L 66.125 11.1875 L 51.125 5.1875 A 3.0003 3.0003 0 0 0 49.9375 4.96875 z M 50 11.21875 L 63.875 16.78125 L 73.875 20.78125 A 3.0146533 3.0146533 0 0 0 74.21875 20.9375 L 81.90625 24 L 70 28.75 L 38.125 16 L 50 11.21875 z M 30 19.21875 L 61.875 31.96875 L 50 36.75 L 18.125 23.96875 L 30 19.21875 z M 13 28.4375 L 47 42.03125 L 47 87.34375 L 13 72.0625 L 13 28.4375 z M 87 28.4375 L 87 72.0625 L 73 78.34375 L 73 67 A 3.0003 3.0003 0 0 0 69.96875 63.9375 A 3.0003 3.0003 0 0 0 67 67 L 67 81.0625 L 53 87.34375 L 53 42.03125 L 67 36.4375 L 67 48 A 3.0003 3.0003 0 1 0 73 48 L 73 34.03125 L 87 28.4375 z " transform="translate(0,952.36218)" fill="#000000" fill-opacity="1" stroke="none" marker="none" visibility="visible" display="inline" overflow="visible"/></g><text x="0" y="115" fill="#000000" font-size="5px" font-weight="bold" font-family="'Helvetica Neue', Helvetica, Arial-Unicode, Arial, Sans-serif">Created by Rockicon</text><text x="0" y="120" fill="#000000" font-size="5px" font-weight="bold" font-family="'Helvetica Neue', Helvetica, Arial-Unicode, Arial, Sans-serif">from the Noun Project</text></svg>