<svg xmlns:dc="http://purl.org/dc/elements/1.1/" xmlns:cc="http://creativecommons.org/ns#" xmlns:rdf="http://www.w3.org/1999/02/22-rdf-syntax-ns#" xmlns:svg="http://www.w3.org/2000/svg" xmlns="http://www.w3.org/2000/svg" version="1.1" viewBox="0 0 105 131.25" x="0px" y="0px"><path style="color:#000000;clip-rule:nonzero;display:inline;overflow:visible;visibility:visible;opacity:1;isolation:auto;mix-blend-mode:normal;color-interpolation:sRGB;color-interpolation-filters:linearRGB;solid-color:#000000;solid-opacity:1;fill:#000000;fill-opacity:1;fill-rule:nonzero;stroke:none;stroke-width:50.64300156;stroke-linecap:butt;stroke-linejoin:miter;stroke-miterlimit:4;stroke-dasharray:none;stroke-dashoffset:0;stroke-opacity:1;color-rendering:auto;image-rendering:auto;shape-rendering:auto;text-rendering:auto;enable-background:accumulate" d="m 50.078131,61.132813 0,5.523438 a 5.4879643,5.4879643 0 0 0 -3.066407,4.917969 5.4879643,5.4879643 0 0 0 3.066407,4.921875 l 0,5.517578 4.843751,0 0,-5.523438 a 5.4879643,5.4879643 0 0 0 3.066407,-4.916015 5.4879643,5.4879643 0 0 0 -3.066407,-4.923827 l 0,-5.51758 -4.843751,0 z m 23.830073,-32.09375 -3.904292,3.904297 a 5.4879643,5.4879643 0 0 0 -5.648442,1.308595 5.4879643,5.4879643 0 0 0 -1.310543,5.65039 l -3.902344,3.902344 3.423829,3.423828 3.906254,-3.906249 a 5.4879643,5.4879643 0 0 0 5.644532,-1.308595 5.4879643,5.4879643 0 0 0 1.31249,-5.648438 l 3.902345,-3.902343 -3.423829,-3.423829 z m -42.816409,0 -3.423814,3.423829 3.902329,3.902343 a 5.4879643,5.4879643 0 0 0 1.312506,5.648438 5.4879643,5.4879643 0 0 0 5.644532,1.308595 l 3.906254,3.906249 3.423829,-3.423828 -3.902345,-3.902344 A 5.4879643,5.4879643 0 0 0 40.644544,34.251955 5.4879643,5.4879643 0 0 0 34.996102,32.94336 L 31.091795,29.039063 Z M 52.500127,2.4999952 C 24.912905,2.4999967 2.5001332,24.91277 2.5001332,52.499999 2.5001332,80.08723 24.912905,102.5 52.500127,102.5 c 27.587236,0 50.000013,-22.41277 50.000013,-50.000001 0,-27.587229 -22.412777,-50.0000023 -50.000013,-50.0000038 z m 0,4.5602162 c 25.122745,0 45.439786,20.3170516 45.439786,45.4397876 0,25.122736 -20.317041,45.439788 -45.439786,45.439788 -25.12273,0 -45.4400711,-20.317052 -45.4400711,-45.439788 0,-25.122736 20.3173411,-45.4397876 45.4400711,-45.4397876 z"/><text x="0" y="120" fill="#000000" font-size="5px" font-weight="bold" font-family="'Helvetica Neue', Helvetica, Arial-Unicode, Arial, Sans-serif">Created by Ryan Lerch</text><text x="0" y="125" fill="#000000" font-size="5px" font-weight="bold" font-family="'Helvetica Neue', Helvetica, Arial-Unicode, Arial, Sans-serif">from the Noun Project</text></svg>