<svg xmlns="http://www.w3.org/2000/svg" xmlns:xlink="http://www.w3.org/1999/xlink" version="1.2" baseProfile="tiny" x="0px" y="0px" viewBox="0 0 100 125" xml:space="preserve"><path d="M50,5L27.5,27.5c-12.426,12.426-12.426,32.574,0,45h0c5.577,5.577,12.709,8.642,20,9.214V95h5V81.714  c7.291-0.571,14.423-3.637,20-9.214h0c12.426-12.426,12.426-32.574,0-45L50,5z M67.197,67.197  c-3.999,3.999-9.145,6.432-14.697,6.995v-8.157l14.268-14.268l-3.535-3.535L52.5,58.965v-10.43l9.268-9.268l-3.535-3.535  L52.5,41.465V27.5h-5v13.965l-5.732-5.732l-3.535,3.535l9.268,9.268v10.43L36.768,48.232l-3.535,3.535L47.5,66.035v8.157  c-5.551-0.563-10.698-2.996-14.697-6.995C28.21,62.603,25.68,56.496,25.68,50s2.53-12.603,7.123-17.197L50,15.607l17.197,17.197  C76.679,42.286,76.679,57.714,67.197,67.197z"/><text x="0" y="115" fill="#000000" font-size="5px" font-weight="bold" font-family="'Helvetica Neue', Helvetica, Arial-Unicode, Arial, Sans-serif">Created by Arthur Shlain</text><text x="0" y="120" fill="#000000" font-size="5px" font-weight="bold" font-family="'Helvetica Neue', Helvetica, Arial-Unicode, Arial, Sans-serif">from the Noun Project</text></svg>