<svg xmlns="http://www.w3.org/2000/svg" xmlns:xlink="http://www.w3.org/1999/xlink" xmlns:sketch="http://www.bohemiancoding.com/sketch/ns" viewBox="0 0 60 75" version="1.1" x="0px" y="0px"><title>5 - Artifficial Gravity Module (Solid)</title><desc>Created with Sketch.</desc><g stroke="none" stroke-width="1" fill="none" fill-rule="evenodd" sketch:type="MSPage"><g sketch:type="MSLayerGroup" fill="#000000"><path d="M5,5 C5.552,5 6,4.552 6,4 C6,3.448 5.552,3 5,3 C4.448,3 4,3.448 4,4 C4,4.552 4.448,5 5,5" sketch:type="MSShapeGroup"/><path d="M22,14 C22.552,14 23,13.552 23,13 C23,12.448 22.552,12 22,12 C21.448,12 21,12.448 21,13 C21,13.552 21.448,14 22,14" sketch:type="MSShapeGroup"/><path d="M11,33 C11.552,33 12,32.552 12,32 C12,31.448 11.552,31 11,31 C10.448,31 10,31.448 10,32 C10,32.552 10.448,33 11,33" sketch:type="MSShapeGroup"/><path d="M2,52 C1.448,52 1,52.448 1,53 C1,53.552 1.448,54 2,54 C2.552,54 3,53.552 3,53 C3,52.448 2.552,52 2,52" sketch:type="MSShapeGroup"/><path d="M17,58 C16.448,58 16,58.448 16,59 C16,59.552 16.448,60 17,60 C17.552,60 18,59.552 18,59 C18,58.448 17.552,58 17,58" sketch:type="MSShapeGroup"/><path d="M59,2 C59.552,2 60,1.552 60,1 C60,0.448 59.552,0 59,0 C58.448,0 58,0.448 58,1 C58,1.552 58.448,2 59,2" sketch:type="MSShapeGroup"/><path d="M58,11 C58.552,11 59,10.552 59,10 C59,9.448 58.552,9 58,9 C57.448,9 57,9.448 57,10 C57,10.552 57.448,11 58,11" sketch:type="MSShapeGroup"/><path d="M51,6 C51.552,6 52,5.552 52,5 C52,4.448 51.552,4 51,4 C50.448,4 50,4.448 50,5 C50,5.552 50.448,6 51,6" sketch:type="MSShapeGroup"/><path d="M57,52 C56.448,52 56,52.448 56,53 C56,53.552 56.448,54 57,54 C57.552,54 58,53.552 58,53 C58,52.448 57.552,52 57,52" sketch:type="MSShapeGroup"/><path d="M50,56 C49.448,56 49,56.448 49,57 C49,57.552 49.448,58 50,58 C50.552,58 51,57.552 51,57 C51,56.448 50.552,56 50,56" sketch:type="MSShapeGroup"/><path d="M59.187,23 L57.086,23 C56.434,20.466 55.433,18.052 54.102,15.798 L55.583,14.317 L55.14,13.638 C52.841,10.112 49.888,7.159 46.362,4.86 L45.683,4.417 L44.202,5.898 C41.948,4.567 39.534,3.566 37,2.914 L37,0.814 L36.206,0.647 C32.126,-0.211 27.874,-0.211 23.794,0.647 L23,0.814 L23,2.914 C20.466,3.566 18.052,4.567 15.798,5.898 L14.317,4.417 L13.638,4.86 C10.112,7.159 7.159,10.112 4.86,13.638 L4.417,14.317 L5.898,15.798 C4.567,18.052 3.566,20.466 2.914,23 L0.813,23 L0.646,23.794 C0.218,25.834 0,27.922 0,30 C0,32.078 0.218,34.166 0.646,36.206 L0.813,37 L2.914,37 C3.566,39.534 4.567,41.948 5.898,44.202 L4.417,45.683 L4.86,46.362 C7.159,49.888 10.112,52.841 13.638,55.14 L14.317,55.583 L15.798,54.102 C18.052,55.433 20.466,56.434 23,57.086 L23,59.187 L23.794,59.354 C25.834,59.782 27.922,60 30,60 C32.078,60 34.166,59.782 36.206,59.354 L37,59.187 L37,57.086 C39.534,56.434 41.948,55.433 44.202,54.102 L45.683,55.583 L46.362,55.14 C49.888,52.841 52.841,49.888 55.14,46.362 L55.583,45.683 L54.102,44.202 C55.433,41.948 56.434,39.534 57.086,37 L59.187,37 L59.354,36.206 C59.782,34.166 60,32.078 60,30 C60,27.922 59.782,25.834 59.354,23.794 L59.187,23 L59.187,23 Z M28.648,7.043 C29.543,6.99 30.452,6.989 31.356,7.044 L31.773,7.075 C31.999,7.092 32.223,7.116 32.447,7.139 L30,9.586 L27.553,7.139 C27.778,7.116 28.002,7.092 28.231,7.075 L28.648,7.043 L28.648,7.043 Z M37.742,36.328 L37.231,35.817 C37.203,35.789 37.166,35.778 37.135,35.754 C37.111,35.723 37.1,35.686 37.071,35.657 L34.171,32.757 C34.709,31.946 35,30.996 35,30 C35,29.004 34.709,28.054 34.171,27.243 L37.742,23.672 C40.746,27.34 40.746,32.66 37.742,36.328 L37.742,36.328 Z M22.258,23.672 L25.829,27.243 C25.291,28.054 25,29.004 25,30 C25,30.996 25.291,31.946 25.829,32.757 L22.929,35.657 C22.9,35.686 22.889,35.723 22.865,35.754 C22.834,35.778 22.797,35.789 22.769,35.817 L22.258,36.328 C19.254,32.66 19.254,27.34 22.258,23.672 L22.258,23.672 Z M30,27 C30.802,27 31.555,27.313 32.121,27.879 C32.688,28.445 33,29.198 33,30 C33,30.802 32.688,31.555 32.121,32.121 C30.988,33.254 29.012,33.254 27.879,32.121 C27.313,31.555 27,30.802 27,30 C27,29.198 27.313,28.445 27.879,27.879 C28.445,27.313 29.198,27 30,27 L30,27 Z M24.183,37.231 C24.211,37.203 24.222,37.166 24.247,37.135 C24.277,37.111 24.314,37.1 24.343,37.071 L27.243,34.171 C28.054,34.709 29.004,35 30,35 C30.996,35 31.946,34.709 32.757,34.171 L35.657,37.071 C35.686,37.1 35.723,37.111 35.753,37.135 C35.778,37.166 35.789,37.203 35.817,37.231 L36.329,37.743 C34.548,39.205 32.335,40 30,40 C27.665,40 25.452,39.205 23.671,37.743 L24.183,37.231 L24.183,37.231 Z M32.757,25.829 C31.946,25.291 30.996,25 30,25 C29.004,25 28.054,25.291 27.243,25.829 L23.671,22.257 C25.452,20.795 27.665,20 30,20 C32.335,20 34.548,20.795 36.329,22.257 L32.757,25.829 L32.757,25.829 Z M7.357,42.743 C6.332,40.927 5.521,39.008 4.961,37 L8.044,37 L7.725,35.752 C7.617,35.332 7.523,34.906 7.44,34.478 L7.367,34.073 C7.313,33.772 7.265,33.468 7.222,33.159 C7.2,33.007 7.181,32.855 7.163,32.701 C7.128,32.395 7.099,32.084 7.075,31.769 L7.043,31.352 C7.017,30.904 7,30.454 7,30 C7,29.546 7.017,29.096 7.044,28.644 L7.075,28.227 C7.099,27.915 7.128,27.606 7.163,27.298 C7.181,27.146 7.2,26.993 7.222,26.839 C7.264,26.533 7.313,26.23 7.367,25.929 L7.44,25.523 C7.523,25.094 7.617,24.668 7.725,24.248 L8.044,23 L4.985,23 C5.544,20.995 6.34,19.075 7.362,17.262 L9.532,19.432 L10.188,18.321 C10.67,17.505 11.214,16.703 11.85,15.882 C12.133,15.52 12.425,15.166 12.76,14.785 C13.39,14.071 14.071,13.39 14.821,12.729 C15.165,12.425 15.519,12.133 15.938,11.805 C16.66,11.247 17.417,10.73 18.188,10.267 L18.601,10.019 L18.755,8.856 L17.262,7.362 C19.075,6.34 20.995,5.544 23,4.985 L23,8.044 L24.248,7.725 C24.534,7.651 24.826,7.592 25.116,7.53 L29,11.414 L29,16.513 C25.762,16.748 22.748,18.11 20.429,20.429 C15.39,25.467 15.175,33.517 19.758,38.828 L16.549,42.037 C16.487,42.025 16.43,42 16.364,42 L10.392,42 C10.326,41.892 10.252,41.787 10.188,41.679 L9.532,40.568 L7.357,42.743 L7.357,42.743 Z M12.729,45.179 C12.425,44.834 12.133,44.481 11.805,44.062 C11.789,44.041 11.776,44.02 11.76,44 L16,44 L16,48.237 C15.96,48.207 15.922,48.181 15.882,48.15 C15.519,47.867 15.165,47.575 14.785,47.24 C14.071,46.61 13.39,45.929 12.729,45.179 L12.729,45.179 Z M37,55.015 L37,51.956 L35.752,52.275 C35.332,52.383 34.906,52.477 34.477,52.561 L34.071,52.633 C33.771,52.688 33.467,52.736 33.159,52.778 C33.007,52.8 32.854,52.819 32.702,52.837 C32.394,52.872 32.085,52.901 31.769,52.925 L31.352,52.957 C30.457,53.01 29.548,53.011 28.644,52.956 L28.227,52.925 C27.916,52.901 27.606,52.872 27.298,52.837 C27.146,52.819 26.993,52.8 26.839,52.778 C26.532,52.735 26.229,52.688 25.929,52.634 L25.523,52.561 C25.094,52.477 24.668,52.383 24.248,52.275 L23,51.956 L23,55.015 C20.995,54.456 19.075,53.66 17.262,52.638 L18.596,51.304 L18.421,49.877 L18.01,49.625 C18.006,49.623 18.003,49.621 18,49.619 L18,43.596 C18,43.542 17.978,43.496 17.97,43.445 L21.17,40.244 C23.626,42.367 26.721,43.536 30,43.536 C33.279,43.536 36.374,42.367 38.83,40.244 L42.037,43.451 C42.025,43.513 42,43.57 42,43.636 L42,49.612 C41.928,49.656 41.858,49.706 41.785,49.749 L41.348,50.155 L41.225,51.124 L42.738,52.638 C40.925,53.66 39.005,54.456 37,55.015 L37,55.015 Z M47.24,45.215 C46.61,45.929 45.929,46.61 45.179,47.272 C44.834,47.575 44.481,47.867 44.06,48.195 C44.041,48.211 44.02,48.224 44,48.239 L44,44 L48.236,44 C48.206,44.04 48.181,44.078 48.15,44.118 C47.867,44.481 47.575,44.834 47.24,45.215 L47.24,45.215 Z M52.638,42.738 L50.468,40.568 L49.812,41.679 C49.748,41.786 49.673,41.893 49.608,42 L43.596,42 C43.542,42 43.496,42.022 43.445,42.031 L40.243,38.828 C44.826,33.517 44.61,25.467 39.571,20.429 C37.252,18.11 34.238,16.748 31,16.513 L31,11.414 L34.884,7.53 C35.174,7.592 35.466,7.651 35.752,7.725 L37,8.044 L37,4.985 C39.005,5.544 40.925,6.34 42.738,7.362 L41.501,8.6 L41.16,8.981 L41.281,9.952 L41.703,10.202 C42.513,10.682 43.306,11.221 44.118,11.85 C44.481,12.133 44.835,12.425 45.215,12.76 C45.929,13.39 46.61,14.071 47.271,14.821 C47.575,15.165 47.867,15.52 48.195,15.939 C48.786,16.703 49.33,17.505 49.812,18.321 L50.468,19.432 L52.638,17.262 C53.66,19.075 54.456,20.995 55.015,23 L51.956,23 L52.275,24.248 C52.383,24.668 52.477,25.094 52.561,25.523 L52.633,25.929 C52.688,26.23 52.736,26.533 52.778,26.841 C52.8,26.993 52.819,27.146 52.837,27.298 C52.872,27.606 52.901,27.915 52.925,28.231 L52.957,28.648 C52.983,29.096 53,29.546 53,30 C53,30.454 52.983,30.904 52.956,31.356 L52.925,31.773 C52.901,32.084 52.872,32.395 52.837,32.702 C52.819,32.855 52.8,33.007 52.778,33.161 C52.735,33.468 52.688,33.772 52.634,34.071 L52.561,34.478 C52.477,34.906 52.383,35.332 52.275,35.752 L51.956,37 L55.015,37 C54.456,39.005 53.66,40.925 52.638,42.738 L52.638,42.738 Z" sketch:type="MSShapeGroup"/></g></g><text x="0" y="75" fill="#000000" font-size="5px" font-weight="bold" font-family="'Helvetica Neue', Helvetica, Arial-Unicode, Arial, Sans-serif">Created by Oliviu Stoian</text><text x="0" y="80" fill="#000000" font-size="5px" font-weight="bold" font-family="'Helvetica Neue', Helvetica, Arial-Unicode, Arial, Sans-serif">from the Noun Project</text></svg>