<svg xmlns="http://www.w3.org/2000/svg" xmlns:xlink="http://www.w3.org/1999/xlink" version="1.0" x="0px" y="0px" viewBox="0 0 50 62.5" enable-background="new 0 0 50 50" xml:space="preserve"><g><path d="M8,21.1H3.8c-0.7,0-1.2,0.6-1.2,1.2v5.3c0,0.7,0.6,1.2,1.2,1.2H8h2.5v1.5H7.9c-0.7,0-1.2,0.6-1.2,1.2v15.9   c0,0.7,0.6,1.2,1.2,1.2h7.7c0.7,0,1.2-0.6,1.2-1.2V31.6c0-0.7-0.6-1.2-1.2-1.2H13v-1.5h2.4l3.4,1.2c0.1,0.1,0.3,0.1,0.4,0.1h10.7   c0.1,0,0.3,0,0.4-0.1l3.4-1.2h5.9v1.5h-2.6c-0.7,0-1.2,0.6-1.2,1.2v15.9c0,0.7,0.6,1.2,1.2,1.2h7.7c0.7,0,1.2-0.6,1.2-1.2V31.6   c0-0.7-0.6-1.2-1.2-1.2h-2.6v-1.5h4c0.7,0,1.2-0.6,1.2-1.2v-5.3c0-0.7-0.6-1.2-1.2-1.2h-4v-1.5h2.6c0.7,0,1.2-0.6,1.2-1.2V2.5   c0-0.7-0.6-1.2-1.2-1.2h-7.7c-0.7,0-1.2,0.6-1.2,1.2v15.9c0,0.7,0.6,1.2,1.2,1.2h2.6v1.5h-5.9l-3.4-1.2c-0.1,0-0.1,0-0.2,0   c-0.1,0-0.1,0-0.2,0H19.2c-0.1,0-0.1,0-0.2,0c-0.1,0-0.1,0-0.2,0l-3.4,1.2H13v-1.5h2.6c0.7,0,1.2-0.6,1.2-1.2V2.5   c0-0.7-0.6-1.2-1.2-1.2H7.9c-0.7,0-1.2,0.6-1.2,1.2v15.9c0,0.7,0.6,1.2,1.2,1.2h2.6v1.5H8z M14.3,46.3H9.1V32.9h5.2V46.3z    M43.5,46.3h-5.2V32.9h5.2V46.3z M38.3,3.7h5.2v13.4h-5.2V3.7z M9.1,3.7h5.2v13.4H9.1V3.7z M5.1,23.6h1.7v2.8H5.1V23.6z M32.3,26.8   l-1.1,0.4v-4.4l1.1,0.4V26.8z M34.8,23.6h10.2v2.8H34.8V23.6z M20.5,22.3h8.2v5.4h-8.2V22.3z M16.8,23.2l1.1-0.4v4.4l-1.1-0.4V23.2   z M14.2,26.4H9.2v-2.8h4.9V26.4z"/></g><text x="0" y="65" fill="#000000" font-size="5px" font-weight="bold" font-family="'Helvetica Neue', Helvetica, Arial-Unicode, Arial, Sans-serif">Created by Focus Lab</text><text x="0" y="70" fill="#000000" font-size="5px" font-weight="bold" font-family="'Helvetica Neue', Helvetica, Arial-Unicode, Arial, Sans-serif">from the Noun Project</text></svg>